<svg id="Layer_1" data-name="Layer 1" xmlns="http://www.w3.org/2000/svg" viewBox="0 0 1080 1080"><path d="M250.55,499c-.15,1.54.35,2.49-.44,3.55a6.21,6.21,0,0,0-1.48,5.14,2.93,2.93,0,0,1-.4,1.51,3.72,3.72,0,0,0,.36,3.77,6.36,6.36,0,0,1,.83,4.19c-.06,1.31,0,2.64-.13,3.94a7.43,7.43,0,0,0,.81,3.7c.82,2,2.18,3.91,2.11,6.26a2.81,2.81,0,0,0,.3,1.53c1.18,1.91,1.87,3.8.5,5.92a1.32,1.32,0,0,0,.14,1.11c1,1.76.48,3.58.51,5.61a21.11,21.11,0,0,1-2.75.39,29.61,29.61,0,0,0-8.19,1.34c-5.17,1.62-10.37,3.12-15.57,4.63-2.16.62-4.34,1.17-6.53,1.67a21.68,21.68,0,0,0-6.61,2.61c-2.24,1.39-4.54,2.66-6.82,4a2.37,2.37,0,0,1-.36.17c-2.17,1-3.33.32-3.54-2-.1-1.16-.12-2.33-.17-3.5-3.89.41-3.88.41-4.1-3.49a7.3,7.3,0,0,0-.37-1.33,7.59,7.59,0,0,0-1.45.29c-2.3,1-4.58,2-6.87,3a1.66,1.66,0,0,1-.37.14c-1.16.28-2.35.68-3.46,0s-.57-1.92-.71-2.92a3.64,3.64,0,0,0-.22-.5c-2.29-1.61-4.73-2.52-7.62-1a3.07,3.07,0,0,1-3.2-.08,4.07,4.07,0,0,1,.77-4.27c1.49-1.69,2.91-3.43,4.34-5.16.31-.38.56-.81,1-1.49l-3.36-.85c-.86-1.57.31-2.44.77-3.71a4.41,4.41,0,0,1-1.75-.32,2.56,2.56,0,0,1-1-1.51,3.88,3.88,0,0,1,1.06-3.29c1.3-1.53,2.49-3,2.39-5.21,0-.66.72-1.36,1.21-2.2-.32-.35-.63-.74-1-1.07a1.82,1.82,0,0,1-.33-2.51c.62-1,1.41-1.88,2.16-2.87-.35-.89-.68-1.72-1.12-2.8l7.27-8.15c-1.39-2.21-1.39-2.21-1.35-5.35-1-.46-2.09-.92-3.14-1.46a2.17,2.17,0,0,1-1-3,15.5,15.5,0,0,1,1.42-1.91c1.31-1.66,2.64-3.25,2.85-5.54.07-.81.86-1.55,1.33-2.33a3.69,3.69,0,0,0-.75-.37c-2.44-.61-3-2-1.27-3.77a53.77,53.77,0,0,1,4.17-3.66c.9-.76,1.84-1.48,2.92-2.35-1-2.06-1.5-4.1.51-5.5a1.51,1.51,0,0,0-1.87-1,17.19,17.19,0,0,1-2.37.12,1.41,1.41,0,0,1-1.28-1.31,3,3,0,0,1,1.48-3.4,9.28,9.28,0,0,0,3.54-3.09,6.89,6.89,0,0,0,.6-1,1.67,1.67,0,0,0-1.31-2.37c-1-.07-2.12,0-3.17,0a1.35,1.35,0,0,1-.87-1.88,7.65,7.65,0,0,1,1.94-1.91,39.3,39.3,0,0,1,3.93-1.87c1.95-.89,3.74-2,4.71-3.94-.14-1.39-2.23-1-2.12-2.66s1.23-2.27,2.27-3.36c-.2-.55-.39-1.15-.62-1.72a2.36,2.36,0,0,1,.61-2.89A17.06,17.06,0,0,0,202.6,430a2.75,2.75,0,0,1,2.55-1.62,2.53,2.53,0,0,1,2.58,1.47c1,2,2.08,4,2.89,6.06a26.33,26.33,0,0,1,.85,4.57,20.46,20.46,0,0,0,2.19,1.73,2.92,2.92,0,0,1,1.58,3.31,6.07,6.07,0,0,0,0,1.21c1.05,1.46,2.69,2.13,4.06,3.14a10.7,10.7,0,0,0,1.08.49,1.49,1.49,0,0,1,.86,1.62,1.71,1.71,0,0,1-1.62,1.49,18.48,18.48,0,0,1-2-.09c-.62,0-1.25.1-2.05.16,0,1.47-.09,2.75,0,4a3.45,3.45,0,0,0,.84,1.71,13.53,13.53,0,0,0,2,1.94c1.36,1.1,2.12,2.37,1.41,4.14a2.24,2.24,0,0,0,.66,2.5,8.09,8.09,0,0,1,.81,1.43l-2,2.07a3.82,3.82,0,0,0,.4,1.06c1.7,2.19,3.44,4.35,5.15,6.54a7.38,7.38,0,0,1,1,1.69,1.85,1.85,0,0,1-1.11,2.56c-.73.31-1.54.39-1.76,1.33a3.61,3.61,0,0,0,.29,3.06c1.13,1.63,2.21,3.29,3.4,4.88s2.52,2.32,4.67,1.48c.27-1.83.17-3.82,1.23-5.59.34-.56.08-1.54,0-2.31a5.91,5.91,0,0,1,.84-3.81,18.69,18.69,0,0,0,2.71-6.55,6.56,6.56,0,0,1,1-2.17,2.31,2.31,0,0,1,4-.07,4.74,4.74,0,0,1,.38.7l3.43,7.21-1.24,2.8a2.76,2.76,0,0,0,.09.88,37.62,37.62,0,0,1,2.61,6.57,3.46,3.46,0,0,0,1.34,1.8,6,6,0,0,0,5,.76,58,58,0,0,0,6.09-1.75,25.38,25.38,0,0,0,4.28-2c8-4.64,15.71-9.75,23.29-15.08a151.66,151.66,0,0,0,19.09-16.08,127.88,127.88,0,0,0,14.18-17,99.43,99.43,0,0,1,6.92-8.16,10.54,10.54,0,0,1,2.52-1.91,3,3,0,0,1,4.42,1.15,15.88,15.88,0,0,1,1.28,2.89,11.64,11.64,0,0,1,.57,2.31c.82,5.6,4.43,8.85,9.29,11a50,50,0,0,0,6.4,2.12,9.21,9.21,0,0,0,5.09-.28,19.43,19.43,0,0,0,9.24-5.89,44.08,44.08,0,0,1,4.43-4.53c2.74-2.31,5.24-2.19,7.72.34,2,2.08,3.91,4.31,5.88,6.45a11.48,11.48,0,0,0,1.34,1.1c1.63-.05,2.29-1.17,3.1-2,5.64-5.59,11.23-11.22,16.84-16.84,5.05-5.05,10-10.25,15.17-15.13,6.18-5.77,12.52-11.37,19.88-15.67.46-.26.9-.56,1.38-.79,2.06-1,3.43-.86,4.95.93,2,2.32,3.71,4.82,5.58,7.22,2.51,3.23,4.92,6.56,7.64,9.61a24.77,24.77,0,0,0,5.51,4.47,6.41,6.41,0,0,0,5.77.17c5.13-2.09,10.34-4,15.25-6.62,5.12-2.75,10.3-5.38,15.16-8.59q6.45-4.25,12.79-8.66c9.17-6.37,17.23-14,24.89-22.07a75.61,75.61,0,0,0,9.5-12.16c.82-1.34,1.83-2.57,2.66-3.73a8.51,8.51,0,0,1,1.37-.31c4.66-.19,4.91-.17,7.14,4.05a209.29,209.29,0,0,0,11.91,19.19c1.33,2,2.86,3.79,4.45,5.88a11.24,11.24,0,0,0,1.73-.16,3.42,3.42,0,0,1,3.81,1.47c1.52,2,3.07,4,4.51,6,5.15,7.35,10.26,14.74,15.4,22.1a14.2,14.2,0,0,0,1.38,1.48c1-.3,1.85-.51,2.7-.84A50.48,50.48,0,0,1,624.12,414a12.34,12.34,0,0,0,8.69-3.25c1.28-1.13,2.83-1.93,4.19-3q7.07-5.44,14.07-11c1.87-1.47,3.76-2.92,5.5-4.53,5-4.61,8.92-10.1,12.62-15.73a31.29,31.29,0,0,1,7.38-7.67c2.1-1.6,4.33-3,6.4-4.66a4.93,4.93,0,0,1,4.83-.88c3.05.93,6.09,1.85,8.41,4.24a8.6,8.6,0,0,0,1.94,1.37,18.69,18.69,0,0,1,5.61,5,13.94,13.94,0,0,0,4.87,4,31,31,0,0,1,7.87,6c4.52,4.46,9,8.91,13.66,13.26s9.18,8.4,13.76,12.6a13.72,13.72,0,0,0,4.36,2.64,80.58,80.58,0,0,1,7.75,3.94c4.2,2.25,8.37,4.53,12.55,6.79,1.16.63,2.35,1.21,3.47,1.92a9.2,9.2,0,0,0,4.4,1.63,7.52,7.52,0,0,1,2.62.81c5.39,2.53,10.76,5.1,16.15,7.63a22,22,0,0,0,3,1.1c2.66.81,5.33,1.58,8,2.35s5.12,1.32,7.37,2.84a2.06,2.06,0,0,0,2.69-.2c-.14-1-.28-2-.42-3l-1.07-.66c-2-1.2-2.09-2.05-.45-3.54.39-.35.81-.66,1.19-1,.06-.06,0-.25,0-.47a3,3,0,0,0-3.28.08c-2,1-4.15.66-6.24.74a1.75,1.75,0,0,1-1.4-2.64,7.61,7.61,0,0,1,2.12-2.26,40.53,40.53,0,0,1,11.52-6c4.6-1.41,6.77-5,8.35-9.69a13.91,13.91,0,0,0-4.46,1.07,8.71,8.71,0,0,1-2.65.69,1.72,1.72,0,0,1-1.74-2.41,3.88,3.88,0,0,1,.78-1.35,8.51,8.51,0,0,1,1.82-1.51c3.61-2.07,6.21-5.33,9.34-8,.15-.12.1-.47.17-.94-1.17-.68-2.51-.17-3.75-.29-.91-.08-1.94.07-2.42-1a2.36,2.36,0,0,1,.7-2.86c2.1-2,4.2-4,6.35-6a4.06,4.06,0,0,0,1.52-2.64,5.87,5.87,0,0,1,1.07-2.9c1.73-2.18,2.23-4.76,2.73-7.35a32.85,32.85,0,0,0,.62-4.71c.07-1.82.9-2.55,1.84-2.64,1.25-.12,2,.63,2.27,2.67s.51,3.94.68,5.91a21.32,21.32,0,0,1,.08,3.57c-.3,3.93,1.17,7.27,3.38,10.33,1.08,1.5,2.36,2.85,3.57,4.24.43.5,1,.89,1.4,1.4,1.09,1.38.63,2.67-1.13,3.23-.37.11-.75.2-1.12.3.56,2.74,1,3.68,2.8,4.88,1.52,1,3.16,1.9,4.74,2.84a13,13,0,0,1,1.35.81c1.29,1,1.19,2.25-.24,3.15-.53.34-1.09.63-1.76,1a12.22,12.22,0,0,0,4.27,5.26c1.71,1.25,3.49,2.39,5.25,3.58.55.36,1.29.59,1.62,1.09a3.94,3.94,0,0,1,.59,2.17c0,.94-.87,1.3-1.7,1.3-2.52,0-5-.08-7.54-.13-1.45,0-1.45,0-2.75,1.71.25,1.33,1.54,1.65,2.4,2.4a14.07,14.07,0,0,1,2.27,2.15,1.65,1.65,0,0,1-1.26,2.63c-.52.05-1.06,0-1.59,0s-.78,0-1.49.08a5.56,5.56,0,0,0,.74,1.67c3.84,3.86,7.84,7.5,13,9.57a7.94,7.94,0,0,1,2,1.32,2.06,2.06,0,0,1,.65,2.16,1.89,1.89,0,0,1-1.67,1.48c-1.82.28-3.62.82-5.5.31a5.53,5.53,0,0,0-1.41,0c-.2,1.19.69,1.49,1.2,2a23.6,23.6,0,0,1,2.26,2.21c1.29,1.71.61,3.53-1.47,4.22l-1.67.52a8.7,8.7,0,0,0,.81,1.89q3.1,4.11,6.31,8.14c1.32,1.65,2.75,3.21,4.08,4.85s2.82,3,5.28,3a8.36,8.36,0,0,1,3.74,1.09,3.43,3.43,0,0,1,1.26,1.86,1.46,1.46,0,0,1-1.1,1.81,11.52,11.52,0,0,0-5.31,1.19c-.37.21-1,0-1.54-.13-1.53-.41-3-.89-4.58-1.29-.57-.15-1.46-.52-1.57.41s.83.83,1.47.93,1,.1,1.5.14c1.1,2.51,1,2.85-1,3.63-1,.37-1.9.81-3.08,1.31,2.85,4.12,5.55,8,8.21,11.89s5.54,7.28,7.71,11.74a6,6,0,0,1-1.77.2c-8.12-2.48-16.49-3.69-24.86-4.9-4.58-.67-9.08-1.82-13.66-2.47a121.15,121.15,0,0,1-15.07-3.28c-4.06-1.11-8.32-1.46-12.47-2.28-5.06-1-10.09-2.12-15.13-3.21-.89-.19-1.84-.35-2.15-1.79l3-2.39c-.46-.32-.71-.61-1-.69-.83-.19-1.54-.51-1.69-1.43a2.18,2.18,0,0,1,1.12-2.35c1.35-.8,2.74-1.54,4-2.26-.2-2.45-.41-2.75-2-2.82-.92,0-1.86.06-2.78,0a1.79,1.79,0,0,1-1.45-2.86,10.81,10.81,0,0,1,1.52-1.81c2.76-2.86,5.53-5.69,8.29-8.55.36-.37.67-.79,1.14-1.35-.57-.61-1.09-1.16-1.6-1.72l-8-8.83c-2.75-3-5.47-6.11-8.24-9.13-2.33-2.53-4.82-4.88-6.92-7.64a23.6,23.6,0,0,0-5-4.54A95.38,95.38,0,0,0,760.58,427c-1.54-.64-3-1.47-5.23-2.58,1.31,2.56,2.2,4.41,3.18,6.2a135.44,135.44,0,0,1,8.07,18,9.15,9.15,0,0,1,.39,1.54,56.23,56.23,0,0,0,4.74,15c2.42,5.14,5,10.23,7.5,15.31a7.43,7.43,0,0,1,1,4.18,1.55,1.55,0,0,1-2,1.38,4.48,4.48,0,0,1-2.87-2c-1.91-3.07-4.65-5.4-7.16-7.92a51.66,51.66,0,0,1-10.84-15.51c-1.17-2.65-2.13-5.39-3.37-8s-2.61-4.59-5.57-5.09c-.38-.07-.71-.38-1.09-.49-2.55-.69-3.55-2.31-3.53-5a35.9,35.9,0,0,0-2.06-13.65,5.75,5.75,0,0,1-.3-1.55,2.76,2.76,0,0,1,1.36-3c1.59-1,1.84-2.08.8-3.16-3.28-3.45-6.66-6.8-10-10.17-.13-.13-.48-.06-.76-.08-.74.38-.6,1.1-.55,1.72.29,3.56.42,7.14,1,10.66.53,3.26-.38,6.3-.75,9.43a3.39,3.39,0,0,1-.64,1.44,3.13,3.13,0,0,1-3,1.55,2.79,2.79,0,0,1-2.43-2.31,19.19,19.19,0,0,1-.31-3.13,41.8,41.8,0,0,0-.28-4.35c-1-6-2.21-12-3.24-18a5.86,5.86,0,0,0-3.13-4.71,6.44,6.44,0,0,1-2.33-2.59c-1.33-2.43-2.47-5-3.71-7.45a7.38,7.38,0,0,0-1-1.71c-1.56-1.78-3.19-3.5-4.93-5.39l-3.33,1.42a11,11,0,0,0,3.61,3.79c1.43,1.13,2.43,2.4,2.16,4.37a3.24,3.24,0,0,0,1.27,2.77,12.48,12.48,0,0,1,3.45,7c.2,1.16.81,2.24,1.05,3.4a11.8,11.8,0,0,1,.17,3.14,1.64,1.64,0,0,1-2.7,1.09,4.09,4.09,0,0,1-1-1.18c-2.09-3.72-4.48-7.14-8.15-9.55a3.83,3.83,0,0,1-1.78-4.47,3.8,3.8,0,0,0-1-3.65c-1.25-1.54-2.39-3.17-3.69-4.66a5.52,5.52,0,0,1-1-5.92c.17-.5.48-1,.61-1.46.59-2.22.39-4.2-1.68-5.64s-3.87-2.77-5.82-4.12a2.7,2.7,0,0,0-3.34.07,80.6,80.6,0,0,0-7.6,5.71,33.06,33.06,0,0,0-4.57,6c-2.93,4.4-5.82,8.82-8.58,13.33-2.27,3.69-4.32,7.52-6.4,11.17.43,1.31,1.54,1.21,2.33,1.55,3.75,1.65,7.53,3.23,11.29,4.85a12.72,12.72,0,0,1,2.09,1.12,2.23,2.23,0,0,1,.58,3.44,22.43,22.43,0,0,1-3,2.63c-1.25,1-2.61,1.8-3.87,2.77-1.92,1.49-2,2.16-.74,4.35.73,1.25,1.57,2.44,2.34,3.68,1.6,2.57,3.16,5.18,4.8,7.74a22.44,22.44,0,0,0,10.19,8.52c4.23,1.88,8.41,3.86,12.6,5.81A20.16,20.16,0,0,1,700,455.8c1.54,1,1.68,1.81.68,3.62l-.64,1.13a20.87,20.87,0,0,1,9.46,7.07,7.7,7.7,0,0,0,2,1.87c2.68,1.7,5.42,3.3,8.12,5,.79.48,1.53,1,2.3,1.54l6.63,4.33c.64.43,1.45.78,1,2a52.14,52.14,0,0,1-8.93-1c-1.95-.34-3.85-1-5.81-1.24-3.88-.38-7.44-1.86-11-3.23-4.31-1.66-8.42-3.83-12.61-5.79a8.91,8.91,0,0,1-4.29-4c-1.19-2.33-1.71-4.74-.08-7.15a5.47,5.47,0,0,0,.4-1.3c-4.46-1-8.83-2-13.18-3a4.59,4.59,0,0,0-4.37,1.07c-3.66,3-7.49,5.85-11.24,8.77-.74.56-1.44,1.16-2.19,1.72a5.16,5.16,0,0,1-4.09,1,172.24,172.24,0,0,0-20.55-1.73c-3-.13-6.07-.49-9.09-.81a7.17,7.17,0,0,1-5.57-3.26,29.12,29.12,0,0,0-10.27-9.73,8.7,8.7,0,0,1-2-1.89,2.82,2.82,0,0,0-3.56-.74A77,77,0,0,1,581,455.64c-.9.14-1.77.5-2.67.7a19.65,19.65,0,0,1-2.72.49c-.79.07-1.63,0-2-.89a2.33,2.33,0,0,1,.93-2.77c.33-.2.77-.25,1.09-.47,4.39-2.92,9.1-5.37,12.88-9.19a18,18,0,0,0,4.29-6.57c1.61-4.5,1-8.63-2.28-12.13a54.47,54.47,0,0,0-5.38-4.66,19.88,19.88,0,0,0-2.67-1.71c-4.95-2.88-8.23-7.36-11.46-11.9-3.53-4.94-7.24-9.78-10.55-14.87a41.64,41.64,0,0,0-6.87-8.14c-1.71-1.57-2.95-1.75-4.48-.27-2.76,2.66-5.77,5.21-7.86,8.34a27.42,27.42,0,0,1-14.33,11.28c-3.12,1.08-6.08,2.59-9.15,3.81a16.94,16.94,0,0,0-7.11,5.53c-1.63,2.07-3.44,4-5.25,5.94-2.85,3-6.55,4.34-10.57,4.93a32,32,0,0,0-4.29.71,15.19,15.19,0,0,0-4,1.72c-2,1.27-3.88,2.74-5.77,4.17q-3.33,2.51-6.59,5.1c-.91.73-1.72,1.57-2.6,2.38a8.32,8.32,0,0,0,4,4.46c3.46,1.87,5.94,4.81,8.72,7.44a13.33,13.33,0,0,1,1.42,1.89,38.07,38.07,0,0,0,3.05,4.14,47.59,47.59,0,0,1,5.6,7.66c2.14,3.44,5,5.35,9.17,5.07.79-.05,1.59,0,2.38,0a4,4,0,0,1,4.27,3.12,5.5,5.5,0,0,1-1.5,1q-4.78,1.29-9.62,2.41c-2.12.49-3.88-.49-5.53-1.65-3.9-2.73-7.77-5.51-11.66-8.24a6.72,6.72,0,0,0-1.38-.5,4.36,4.36,0,0,0,.18,1.58c1.54,2.58,1.27,5.4.9,8.13a6.2,6.2,0,0,1-3.3,4.69,8.49,8.49,0,0,1-1.46.61l-9.65,2.92a11.87,11.87,0,0,1-1.4-1.67c-1.53-2.63-3-5.28-4.47-7.95a126.36,126.36,0,0,0-9.05-14.39c-3-4-5.92-8.09-8.63-12.29A30.65,30.65,0,0,1,439,430.17c-.27-5.41-.33-10.84-.5-16.26a16.51,16.51,0,0,0-.24-1.78,18.07,18.07,0,0,0-6.55,3.65,44.48,44.48,0,0,0-11.46,14,78.71,78.71,0,0,1-4.55,7.44c-1.88,2.78-2.91,2.79-5.17.33a12.92,12.92,0,0,0-1.07-.92c-4,3.29-6.92,7.51-10.07,11.33-.08,1.13.73,1.47,1.28,2,1.81,1.75,3.67,3.44,5.39,5.27A31.44,31.44,0,0,1,413,467.17,10.83,10.83,0,0,0,418.5,474c4.25,2.21,7.56,5.74,11,9.09,2.64,2.59,5.32,5.14,8,7.73a13.1,13.1,0,0,1,1.06,1.48c-2.06,1.23-3.93,2.41-5.86,3.48a2.2,2.2,0,0,1-2.6-.36c-4.46-3.89-9.5-7.14-13-12.07-3.4-4.71-7.05-9.24-10.66-13.8a25.34,25.34,0,0,0-4.05-4.16,6.74,6.74,0,0,0-.61,1.71q-.06,6,0,11.91a13.21,13.21,0,0,0,.33,2.33,14.58,14.58,0,0,1,.56,2.7c-.08,3.73,1.44,6.94,3.13,10.1,1.5,2.79,3.08,5.53,4.59,8.31a2.68,2.68,0,0,1-.31,3.32c-.88,1-1.88,1.82-3,2.87a7.22,7.22,0,0,1-1.56-1.3c-2.23-3.6-4.49-7.19-6.54-10.89-1.64-2.93-1.94-6.28-2.45-9.55-.82-5.22-1.75-10.42-2.6-15.63a7,7,0,0,0-2.22-4.09c-2.79-2.64-5.5-5.35-8.26-8-1.81-1.75-3.6-3.5-5.47-5.19-1.06-1-2.23-1.8-3.39-2.71a21.29,21.29,0,0,0-7.21,6.35,18.06,18.06,0,0,1-5,4.39,14.3,14.3,0,0,1-11.84,1.37c-2.77-.77-2.76-.81-6-.12.32.6.58,1.15.89,1.67,3.67,6.12,8.8,10.82,14.36,15.17a74.42,74.42,0,0,1,10.12,10c5.22,6,9.49,12.7,14,19.22,1.35,1.95,2.61,4,3.78,6a6.93,6.93,0,0,1,.74,2.62,1.62,1.62,0,0,1-2.45,1.55,5.24,5.24,0,0,1-1.31-.87,15.36,15.36,0,0,1-2.48-2.56c-2.13-3.24-5-5.81-7.56-8.66-2-2.26-4.09-4.5-6-6.83a26.82,26.82,0,0,0-10.84-7.73A62.51,62.51,0,0,0,338,488.53c-5.33-.31-9.84,1.1-13.17,5.69-2.13,2.92-5.33,4.73-8.52,6.33a70.76,70.76,0,0,1-8.76,3.67c-2.85,1-5.86,1.53-8.74,2.45-4,1.28-8.19,1.93-12,3.91-5.51,2.85-11.19,5.38-16.82,8-1.54.71-3.08,1.55-4.91,1.3a1.87,1.87,0,0,1-1.46-2.92,7.7,7.7,0,0,1,1.9-2c5.68-3.84,11.07-8.15,17.47-10.84a53,53,0,0,1,9-3A69.29,69.29,0,0,0,317.61,490c1.71-1.24,3.26-2.7,4.84-4.1,2.42-2.17,5-3.7,8.47-3.71,3,0,6-.76,9-1.12,1.43-.17,2.87-.18,4.2-.25.51-1-.13-1.37-.56-1.83-3-3.31-6-6.68-9.13-9.91a94,94,0,0,1-10.79-13.18,13.36,13.36,0,0,0-1.52-1.55c-1.15,1.61-2.19,2.94-3.09,4.36-1.19,1.9-2.25,3.88-3.41,5.79a17.45,17.45,0,0,1-6.39,5.83q-12.83,7.5-25.08,15.93c-5,3.44-9.77,7.23-14.48,11.05A11.62,11.62,0,0,1,259.4,500C256.57,499.41,253.65,499.34,250.55,499ZM657.8,446.54c-.59-.82-.92-1.39-1.35-1.88-2.37-2.65-4.93-5.14-5.4-9-.19-1.52-1.42-2.2-2.84-2.32-3.07-.25-5.86-1.45-8.75-2.35-1.72-.53-3.5-.89-5.2-1.32-.21.44-.44.68-.42.9.27,2.86-.86,5-2.92,7-2.56,2.47-4.91,5.17-7.27,7.85-1.49,1.7-1.55,2.76-.37,4.67s2.54,3.69,3.74,5.58c1.67,2.64,4.23,3.88,7.06,4.75a5.29,5.29,0,0,0,4.2-.43c1.64-.86,3.35-1.56,5-2.31A36.89,36.89,0,0,0,657.8,446.54Zm-50.48-21.39c.39,3,2.88,4.71,4,7.19a7.5,7.5,0,0,0,1.39,1.89,3,3,0,0,0,4.54.26c2.37-2.07,4.64-4.27,5.62-7.45.49-1.61,1.16-3.16,1.77-4.83-.5-.14-1.13-.29-1.75-.49a9.38,9.38,0,0,0-6.91.09c-1.54.68-3.29.85-4.88,1.43A9.26,9.26,0,0,0,607.32,425.15Zm188.89,19.66c.93,2.11,2.65,3.29,4,4.72a1.26,1.26,0,0,0,1.1.14c1-.36,2-.75,2.15-2C801.29,446,799.92,445.41,796.21,444.81ZM226.28,505.46l2.91,2.31c.76-1.5,1.15-2.7.58-4-.47-1.06-1.06-2.08-2.58-2.16C226.92,502.73,226.66,503.85,226.28,505.46Zm-11.6,43c2.09,2.22,2.78,2.42,4.57,1.45a1.18,1.18,0,0,0,.52-.91,1.21,1.21,0,0,0-.62-.87C217.76,547.53,216.4,547.72,214.68,548.49Zm596.13-94.3a4.1,4.1,0,0,0-4.21.51,1.41,1.41,0,0,0-.33,1c0,.16.34.46.53.46A4.13,4.13,0,0,0,810.81,454.19Z"/><path d="M424.23,515c-1.23.39-2.46.76-3.68,1.16q-14.12,4.62-28.24,9.24c-1.17.38-2.64,1.49-3.45-.23-.68-1.44,1-2,1.82-2.64a184.81,184.81,0,0,1,23-14.84,305.21,305.21,0,0,1,66.72-26.89,357.48,357.48,0,0,1,39.07-8.54c9.39-1.52,18.84-2.59,28.32-3.52,19.8-1.92,39.64-1.83,59.49-1.31,6.07.16,12.14.76,18.2,1.27,6.59.55,13.19,1.07,19.74,1.89,10.49,1.31,20.95,2.77,31.3,5,14.59,3.13,29.2,6.12,43.8,9.19q23.46,4.92,46.9,9.87c23.25,4.93,46.48,9.93,69.74,14.83,9.94,2.1,19.92,4.08,29.9,6,12.06,2.32,24.15,4.47,36.22,6.78a43.35,43.35,0,0,1,14.43,5.29c8.38,5.06,12.67,12.47,13.1,22.21a113.57,113.57,0,0,1-.91,18.62,202.35,202.35,0,0,1-6.26,31.88,72.78,72.78,0,0,1-3,8.18c-.89,2.08-2.11,2.87-3.13,2.4-1.41-.64-1.67-2-1.66-3.32,0-2.65,0-5.3.25-7.93a151.82,151.82,0,0,0,.46-20.23A44.46,44.46,0,0,0,914,566.14a38.59,38.59,0,0,0-3-6.45c-3.13-5.29-7.92-8.38-13.84-9.8-2.56-.62-5.13-1.2-7.7-1.77a23.46,23.46,0,0,0-3.51-.62,246.53,246.53,0,0,0-25.79-.44c-3,.14-6.08.17-9.13.31q-16.25.72-32.51,1.48c-1.85.09-3.7.25-5.55.17a18.54,18.54,0,0,1-3.32-.73c0-.9,0-1.55,0-2.19a2.53,2.53,0,0,1,2.11-2.89c.86-.23,1.71-.5,3.11-.9-1-.63-1.67-1.34-2.24-1.3-3.55.24-5.93,1.89-5.74,5.6,0,.64,0,1.3,0,2.13a16,16,0,0,1-2.94,1c-3,.39-6,.77-9.07.93-11.63.59-23.26,1.06-34.89,1.64-3.3.17-6.59.54-9.88.86-9.87,1-19.74,2-29.61,2.88-7.11.67-14.23,1.19-21.34,1.84s-14,1.39-20.92,2.06c-4.08.39-8.17.71-12.25,1.06-3.69.32-7.38.61-11.07,1-4,.38-7.88.91-11.83,1.22-5.28.41-10.57.65-15.85,1-5.93.39-11.87.83-17.81,1.24-4.22.3-8.44.61-12.66.89-5.68.36-11.36.68-17,1.05s-11.61.81-17.41,1.22c-4.36.31-8.71.64-13.06.93-5.55.36-11.12.49-16.63,1.07-6,.64-11.89.16-17.82-.14-6.08-.31-12.14-.84-18.21-1.25-4.62-.32-9.24-.64-13.86-.92-5.94-.35-11.89-.62-17.83-1s-12.14-.85-18.21-1.27c-4.75-.33-9.5-.66-14.26-.94-5.94-.35-11.88-.65-17.83-1-.65,0-1.3-.12-2-.18.34-.94,1.09-.8,1.69-.84,1.19-.07,2.39-.07,3.58-.08,14.95-.11,29.91-.1,44.86-.37,18.26-.32,36.51-.84,54.77-1.34q15.07-.4,30.15-1.05c6.87-.31,13.73-.83,20.6-1.3,4.22-.29,8.43-.65,12.65-1,5.8-.46,11.64-.9,17.26-2.4,9.22-2.47,18.71-3.21,28.06-4.87,10-1.77,20-3.46,30.05-5.27,11.83-2.14,23.65-4.29,35.45-6.58,10.62-2.06,21.29-4,31.67-7.1,7.46-2.22,14.85-4.71,22.18-7.32a72.22,72.22,0,0,0,8.51-4.2,16.55,16.55,0,0,0,1.92-1.3c-1.3-1.72-2.8-2-4.16-2.34-6.87-1.89-13.73-3.87-20.67-5.48-19.3-4.49-38.74-8.26-58.21-11.89q-18.12-3.37-36.31-6.29c-9.52-1.53-19.09-2.75-28.66-4-2.22-.29-4.49-.13-6.74-.2-4.76-.17-9.51-.31-14.27-.54-14.8-.69-29.6-1.68-44.42-.48-5.41.43-10.83.63-16.23,1.11-4.74.42-9.47,1-14.18,1.68-9.4,1.44-18.74,3.17-28.06,5.1a215,215,0,0,0-31.47,9.34c-5.06,1.89-10.17,3.66-15.87,5.7a21.82,21.82,0,0,0,2.16.72c1,.22,2.1.31,3.12.57a6.89,6.89,0,0,1,5.6,6.8c.13,2.77,0,5.56.05,8.34a4.44,4.44,0,0,1-1.63,3.45,14.49,14.49,0,0,1-10.1,4,53.66,53.66,0,0,1-14.17-1.38,12,12,0,0,1-3.59-1.63c-3.86-2.64-3.85-6.42-1.14-9.07,1.89-1.85,3.82-3.66,5.74-5.48.54-.51,1.11-1,1.67-1.5Z"/><path d="M587.18,545.29c.46,1.11,0,1.76-.83,2-2.16.6-4.34,1.18-6.54,1.58-9.49,1.72-19,3.18-28.6,4.28a526.59,526.59,0,0,1-58.22,3.1c-31.62.12-63.25.47-94.88.78-21.83.21-43.67.44-65.5.85-8.86.17-17.71.8-26.56,1.29-5.15.28-10.3.57-15.43,1q-9.09.84-18.13,2c-5.76.75-11.5,1.7-17.24,2.59a181.16,181.16,0,0,0-54.11,17.33c-7,3.51-13.81,7.23-20.72,10.85a18.14,18.14,0,0,1-2.85,1.36c-.34.11-1-.3-1.31-.63a1.23,1.23,0,0,1-.12-1.06,5.48,5.48,0,0,1,.79-1.36C188.37,575,203.08,563,222,556.51a240.61,240.61,0,0,1,40.23-10.31,220.12,220.12,0,0,1,22-2.73c4.49-.25,9-.82,13.43-1.2,4.22-.36,8.44-.67,12.66-1s8.45-.57,12.68-.79c15.86-.82,31.74-1.41,47.61-.8,7.68.29,15.34,0,23,.18s15.09.22,22.62.5c10.18.37,20.36.87,30.53,1.38,5.28.26,10.57.58,15.83,1.05,5.53.49,11,1.18,16.56,1.79,3.42.38,6.82.92,10.25,1.14,6.59.43,13.21.63,19.81,1,15.87,1,31.75.92,47.62.71a195.2,195.2,0,0,0,28.06-2.19A14.14,14.14,0,0,1,587.18,545.29Z"/><path d="M203.94,689c-4,.72-23.58.91-28.81.35a19.7,19.7,0,0,1-.41-2.16c-.07-.92,0-1.85,0-2.78q0-42,0-84.1c0-1.56.08-3.12.13-4.86a21.45,21.45,0,0,1,2.49-.34c8.33,0,16.65-.11,25-.1,4,0,7.93.08,11.89.27a39.42,39.42,0,0,1,11.6,2.33c6.53,2.36,10.09,7.09,10.65,13.91.39,4.87.42,9.77.45,14.65,0,3.43-.14,6.87-.38,10.29-.46,6.53-4,10.71-10.09,12.85a41.55,41.55,0,0,1-13.22,2.19c-2.89,0-5.79,0-8.48,0-1.11,1.27-.77,2.51-.77,3.65,0,9.79,0,19.57,0,29.36Zm.4-77.58c-.57,4.24-.52,20.13,0,23.46a23.88,23.88,0,0,0,3.78,0,4.48,4.48,0,0,0,3.89-3.42c.74-2.56.88-13.58.18-16.08a4.34,4.34,0,0,0-3.79-3.5C207.16,611.62,205.86,611.52,204.34,611.37Z"/><path d="M604.28,687.66c-6,.4-11.52,0-16.94.33-1-1.42-.7-2.78-.7-4.06,0-9.79,0-19.58,0-29.37V624.27a15,15,0,0,1,2.46-.43q10.73,0,21.44,0a19.84,19.84,0,0,1,2,.21c1.36,4.14,1.7,8.36,2.5,12.48s1.4,8.33,2.08,12.44c1.17.27,1.18-.54,1.26-1.1.86-5.48,1.68-11,2.52-16.46.35-2.35.72-4.69,1.11-7.21a8.35,8.35,0,0,1,1.85-.42q11.5,0,23,0a5.19,5.19,0,0,1,.92.2c.88,1.22.5,2.71.5,4.11,0,13.76,0,27.51,0,41.27,0,4.77,0,9.53,0,14.29,0,1.16-.14,2.32-.21,3.41-4,.71-14.38.61-17.4-.18-.27-2.79-.09-5.68-.12-8.56s0-5.82,0-8.73V652.16l-.54-.08c-.17.63-.39,1.25-.5,1.88q-2.38,14.67-4.76,29.35c-.23,1.41-.57,2.81-.9,4.44-4.15.16-8.08.18-12.26,0-.32-1.21-.71-2.31-.91-3.44-1.66-9.5-3.27-19-4.93-28.51-.2-1.16-.58-2.28-.89-3.48-.81.26-.43.84-.5,1.23a5.89,5.89,0,0,0,0,1.19v28.18C604.35,684.33,604.31,685.78,604.28,687.66Z"/><path d="M816.65,653.5c1.26.5,2.26.83,3.18,1.3,3.16,1.6,5.27,3.94,5.32,7.7.08,7.4.17,14.81.23,22.21a6.14,6.14,0,0,1-.33,1.47,92.17,92.17,0,0,1-18.13.17c-.09-.94-.28-2-.29-3,0-5.82,0-11.64,0-17.46a24.82,24.82,0,0,0-.27-3.95c-.54-3.31-.91-3.55-5-3.53-.62,3-.21,6-.28,9-.07,3.17,0,6.35,0,9.52s0,6,0,9.22c-2.37.88-4.62.4-6.81.48s-4.23,0-6.35,0l-6.56,0c-1.15-1.55-.7-3.06-.71-4.46q0-26.58,0-53.17v-5.71A16.87,16.87,0,0,1,783,623c8.2,0,16.4,0,24.6.08a44.15,44.15,0,0,1,6.69.72,12.56,12.56,0,0,1,10.67,10.77A35.36,35.36,0,0,1,825,645.6c-.53,3.61-2.24,6.14-5.93,7.08C818.36,652.87,817.66,653.16,816.65,653.5Zm-15.46-6a9,9,0,0,0,1.27.16c3-.24,3.73-.84,4-3.72a31.22,31.22,0,0,0,0-5.88,4.67,4.67,0,0,0-1.2-2.79,3.69,3.69,0,0,0-4.1-.81C801,638.74,801,643,801.19,647.46Z"/><path d="M766,654.92c-.19,5.83-.38,11.38-.54,16.92-.2,6.49-3.51,10.94-9.15,13.73a22.6,22.6,0,0,1-6,2c-6.58,1.17-13.13,1.22-19.54-1.07a16.74,16.74,0,0,1-8.21-6,11.71,11.71,0,0,1-2.54-6.14c-.25-4.22-.6-8.44-.65-12.66-.08-6.61,0-13.22.11-19.82,0-1.58.23-3.16.36-4.74.51-6,3.9-10,9.05-12.56a22.88,22.88,0,0,1,6.36-2.11,39.93,39.93,0,0,1,17.3.53,17.88,17.88,0,0,1,10.08,6.6,13.47,13.47,0,0,1,2.75,7.71C765.63,643.32,765.84,649.26,766,654.92Zm-26.49.17h.12c0,4,0,7.94,0,11.91q.06,4,.4,7.91c.16,1.75,1.33,2.47,3.09,2.16a2.1,2.1,0,0,0,1.77-1.39,7.89,7.89,0,0,0,.49-1.91c.11-1.18.17-2.38.18-3.57,0-10.31,0-20.63,0-31a27.7,27.7,0,0,0-.58-4.69,1.79,1.79,0,0,0-1.7-1.42c-1.76-.24-2.88.47-3.2,2.14a13.3,13.3,0,0,0-.19,2.37C739.77,643.46,739.66,649.28,739.54,655.09Z"/><path d="M488.22,687.88h-18.7c-1.09-1.36-.69-2.87-.7-4.26,0-8.73,0-17.45,0-26.18q0-14.27,0-28.55c0-1.43.07-2.86.12-4.5a18.24,18.24,0,0,1,2.45-.39c6.74,0,13.48-.08,20.22,0a87.12,87.12,0,0,1,8.69.64A12.84,12.84,0,0,1,512,636.16a41.52,41.52,0,0,1,.06,10.27c-.39,3.61-2,6.24-5.62,7.36-.49.15-1,.32-1.4.46-.1,1,.61,1.13,1.2,1.38a9.72,9.72,0,0,1,4.12,3,7.16,7.16,0,0,1,1.74,4.33c.11,7.66.23,15.32.32,23a6,6,0,0,1-.32,1.43c-2.62.54-13.25.78-17.73.4a15.47,15.47,0,0,1-.42-2.51c0-6.21,0-12.42,0-18.64a30.56,30.56,0,0,0-.17-4c-.29-2.32-1.18-3-3.69-3.22a6.78,6.78,0,0,0-1.41.22c-.09,1-.27,2-.27,3,0,7,0,14,0,21C488.4,685,488.29,686.26,488.22,687.88Zm.56-38.94c.88-.1,1.78-.17,2.68-.3a2.44,2.44,0,0,0,2.28-2.35c.13-2.76.16-5.54,0-8.29a2.55,2.55,0,0,0-2.32-2.37,16.5,16.5,0,0,0-2.63,0A57.21,57.21,0,0,0,488.78,648.94Z"/><path d="M313,625.27a15,15,0,0,1,2.49-.47c9.37,0,18.76-.28,28.12.57a14.4,14.4,0,0,1,8.63,3.53,13.05,13.05,0,0,1,4.18,9.13c.2,2.5.13,5,.08,7.52-.09,4.86-1.87,8.5-7.55,9.51a7.07,7.07,0,0,0,1.16,1.2c.68.41,1.47.63,2.12,1.06,2.54,1.71,4.24,3.93,4.25,7.17,0,4.76.1,9.51.14,14.27,0,2.38,0,4.76,0,7.14a24.08,24.08,0,0,1-.29,2.48c-5.89.59-11.66.37-17.65.4a22.43,22.43,0,0,1-.41-2.81c0-6.21,0-12.42,0-18.63,0-1.06,0-2.12-.05-3.18-.28-3.24-1.43-4-5.3-3.53,0,3-.07,6-.08,9s0,6.35,0,9.52,0,6.05-.07,9.19c-3.31.82-6.47.34-9.59.42s-6.33,0-9.25,0c-1.18-1-.92-2.15-.93-3.17,0-7.41,0-14.81,0-22.21V629.7C312.89,628.27,312.93,626.83,313,625.27Zm20.12,24.48a7.18,7.18,0,0,0,1.44,0c3-.65,3.52-1.25,3.65-4.16.08-1.69,0-3.4,0-5.1a3.81,3.81,0,0,0-1.37-3.5,3.54,3.54,0,0,0-3.68-.35A57.77,57.77,0,0,0,333.07,649.75Z"/><path d="M253.42,657.89c.16-6.35.27-12.16.49-18,.24-6.5,3.8-10.79,9.38-13.61a24.36,24.36,0,0,1,8.76-2.34,33.22,33.22,0,0,1,14.48,1.32,24.15,24.15,0,0,1,3.28,1.37,15.05,15.05,0,0,1,8.54,12.91c.1,1.32.16,2.64.16,4,0,10.05,0,20.09-.14,30.13-.11,6.56-3.43,11.21-9.29,14.08a16,16,0,0,1-2.17.94,33.87,33.87,0,0,1-22.16-.17,19.6,19.6,0,0,1-5.46-3.11A13.42,13.42,0,0,1,254,675.18C253.74,669.24,253.59,663.3,253.42,657.89Zm25.68,0H279c0-4.9,0-9.8,0-14.69,0-2-.15-4-.35-5.94a2.43,2.43,0,0,0-2.27-2.34,2.5,2.5,0,0,0-2.6,2,25,25,0,0,0-.54,4.71q-.07,15.28,0,30.57a32.69,32.69,0,0,0,.53,5.12,2.27,2.27,0,0,0,2.12,2,2.56,2.56,0,0,0,2.61-2,11.7,11.7,0,0,0,.27-2.36C278.87,669.25,279,663.57,279.1,657.88Z"/><path d="M935.24,641.38a130.07,130.07,0,0,1-18.22.22c-.87-1-.44-2.25-.53-3.4s0-2.38-.18-3.56a2.38,2.38,0,0,0-2.15-2.45,3.1,3.1,0,0,0-3.33,1.57c-1.27,2.51-1,7.43,2.12,9.29,1.35.82,2.74,1.59,4.13,2.35,3.35,1.85,6.75,3.63,10.06,5.54a43.85,43.85,0,0,1,4.23,2.95,12.1,12.1,0,0,1,4.53,6.82,33.77,33.77,0,0,1,.4,15.71,10.45,10.45,0,0,1-4.9,6.91,24.51,24.51,0,0,1-9.21,3.47c-6.59,1.06-13.17,1.13-19.57-1.14a26.18,26.18,0,0,1-4.29-2,11.83,11.83,0,0,1-5.88-8.52,46.84,46.84,0,0,1-.58-11.59c1-.11,1.73-.25,2.48-.27q6.95-.21,13.87-.35a15.57,15.57,0,0,1,2.14.29c.11,1.11.25,2.12.28,3.14.09,2.38,0,4.76.2,7.13.13,1.78.95,2.56,2.35,2.73,2,.24,3.23-.34,3.93-1.89,1.17-2.6.55-5.21,0-7.79-.4-1.82-1.77-2.89-3.28-3.79-2.27-1.35-4.54-2.7-6.83-4-2.74-1.59-5.51-3.14-8.25-4.74a14.82,14.82,0,0,1-7.27-10.8,29,29,0,0,1,.4-11,10.78,10.78,0,0,1,5.4-7.49,21.05,21.05,0,0,1,5-2.28c4.74-1.24,9.57-2,14.51-1.27,2.21.34,4.44.61,6.64,1a21.54,21.54,0,0,1,3.4,1c4.74,1.76,7.77,4.91,8.15,10.17.11,1.58.3,3.16.37,4.74C935.41,639.12,935.29,640.17,935.24,641.38Z"/><path d="M543.8,687.78a21.77,21.77,0,0,1-.33-2.29c-.43-12.78-.16-72.17.33-75.64,3.62-1.07,20.12-1.38,24.39-.43a8,8,0,0,1,.26,1.44q0,38.24,0,76.57a6,6,0,0,1-1.58.52Q556,688,545.09,688A6.88,6.88,0,0,1,543.8,687.78Z"/><path d="M684.06,661.88c0,4.64,0,8.73,0,12.82s.21,8.16-.19,12.49c-6.67.18-13.1,0-19.7.14a13.91,13.91,0,0,1-.33-2q0-29.76,0-59.52c0-.51.09-1,.16-1.76a7.58,7.58,0,0,1,1.81-.44c8.73,0,17.45,0,26.17.25a27,27,0,0,1,7.33,1.52c4.5,1.44,6.8,4.8,7.31,9.41a47,47,0,0,1,.2,4.75c0,2.78,0,5.56,0,8.33,0,1.19-.06,2.38-.14,3.57a9.29,9.29,0,0,1-6.5,8.64,29.12,29.12,0,0,1-10.1,1.74C688.23,661.79,686.41,661.84,684.06,661.88Zm.42-27c-.67,4.6-.56,12.52.14,15.25,3.29.31,4.84-.34,5-2.78a69,69,0,0,0,0-9.86,2.86,2.86,0,0,0-2.63-2.59A19.06,19.06,0,0,0,684.48,634.92Z"/><path d="M860.29,601.14a38,38,0,0,0-3.35-2,128.18,128.18,0,0,0-36.27-11c-13.6-1.93-27.18-1.76-40.48,2.13a204.3,204.3,0,0,0-28.9,10.84,16.68,16.68,0,0,0-2.83,1.43c-4,2.83-8.53,3.37-13.18,3.63-14,.79-28,.8-42,.27-12.29-.46-24.6-.66-36.89-1.11-8.46-.31-16.91-.87-25.36-1.29-3.57-.18-7.13-.28-11.09-.43a4.29,4.29,0,0,1,3-1.16c6.85-.6,13.7-1.17,20.55-1.8,3.94-.37,7.88-.85,11.83-1.23,1.71-.16,3.43-.22,5.15-.27q23.79-.67,47.6-1.32c6.09-.16,12.17-.32,18.26-.31a21.11,21.11,0,0,0,8.43-1.78,249.12,249.12,0,0,1,39.08-12.82,110.3,110.3,0,0,1,35-2.7c5.51.47,10.95,1.7,16.42,2.64,1.69.29,3.33.85,5,1.09a42.21,42.21,0,0,1,14.77,5.45,124.91,124.91,0,0,1,14.48,9.72c.63.48,1.31,1,.71,2Z"/><path d="M422.61,688c-.56-4-.5-60,.07-63.45a55.09,55.09,0,0,1,7.73-.2c2.77,0,5.55,0,8.33,0s5.28,0,7.93,0a58.13,58.13,0,0,1,7.81.2,5.84,5.84,0,0,1,.38,1.33c0,3.57,0,7.13,0,10.89a12.91,12.91,0,0,1-2.28.45c-3.29,0-6.59,0-9.8,0-.88,2.63-1,6.63-.4,11.62,3.65,1,7.51-.61,11.4.51a69.47,69.47,0,0,1,0,11.45c-1.94.84-3.81.36-5.61.5l-5.43.36c-.82,2.74-.92,9.2-.23,13.18,4.33.77,8.82-.08,13.14.51a39,39,0,0,1-.06,12.63Z"/><path d="M848.85,635.71H837.78c-.89-2.7-1-7.32-.38-12.57a8.37,8.37,0,0,1,1.74-.36q19.64-.22,39.28-.37a16.33,16.33,0,0,1,1.9.18c.88,2.7,1,8.82.19,12.79-3.54.54-7.24-.11-11,.39a11.59,11.59,0,0,0-.4,4.37c0,13.9,0,27.79,0,41.69,0,1.43.24,2.91-.45,4.24-3.57.49-16.36.49-19.61,0-.4-5.46-.13-11-.18-16.5s0-11.12,0-16.68Z"/><path d="M410.39,624.54a99.11,99.11,0,0,1,0,12.42c-1.84.9-3.72.4-5.51.51s-3.41.07-5.19.11c-.78,1.53-.51,3-.51,4.4q0,20.65,0,41.3v4.48c-3.31,1-6.48.37-9.58.55s-6.3.64-9.53.14c-1-1.34-.58-2.84-.58-4.23,0-13.9,0-27.8,0-41.7,0-1.42-.09-2.85-.14-4.38-3.75-.72-7.34.06-10.75-.53a33.69,33.69,0,0,1-.06-12.91C382.29,624.46,396.14,624.55,410.39,624.54Z"/><path d="M889.49,702.89a17.51,17.51,0,0,1,1.83-.26,148,148,0,0,1,18.6.57,17.88,17.88,0,0,1,3.45.76,7.53,7.53,0,0,1,5.66,6.87c.16,1.71.33,3.42.34,5.14,0,5.81.06,11.62,0,17.44a48.6,48.6,0,0,1-.49,5.51,6.14,6.14,0,0,1-4.65,5.34,16.12,16.12,0,0,1-4.65.86c-6.34.11-12.68.07-19,.07a5.09,5.09,0,0,1-1-.27,8.42,8.42,0,0,1-.32-1.7q0-19.23,0-38.45A15.61,15.61,0,0,1,889.49,702.89Zm13,34.57c2.74-.1,3.2-.39,3.46-2.22a17.05,17.05,0,0,0,.16-2.37q0-9.3,0-18.61a14.08,14.08,0,0,0-.09-1.58c-.27-2.13-1-2.51-3.55-1.95-.37,2.74-.59,19.61-.3,25.27A10,10,0,0,0,902.52,737.46Z"/><path d="M920.7,523.55c-1.44-.37-2.72-.63-4-1a151.2,151.2,0,0,0-23.13-5.34,17.79,17.79,0,0,1-6.62-1.9,3.18,3.18,0,0,1,.6-3.15c1.19-1.89,2.58-3.65,2-6.2-.18-.71.62-1.66,1.08-2.76-.26-.37-.66-.85-1-1.38a2.48,2.48,0,0,1,.41-2.93c1.3-1.81,2.76-3.52,3.44-5.66-.09-.18-.12-.34-.22-.41-2.75-1.84-2.75-1.84-2.33-5.47-.61-.31-1.3-.63-2-1a2.09,2.09,0,0,1-1.18-2.61,1.77,1.77,0,0,1,1.86-1.17c1.06,0,2.11.08,3.17,0a2.16,2.16,0,0,0,2.17-1.92c.21-1.17.12-2.45,1.17-3.25a4.48,4.48,0,0,0,1.94-4.8c1-2.27,2-4.59,3.13-6.79.69-1.29,2.83-1.17,3.69.1a5.79,5.79,0,0,1,.78,1.8A28.44,28.44,0,0,0,910.61,478a8.4,8.4,0,0,1,1.23,2.47c.53,1.47,0,2.22-1.72,2.79-.35.11-.71.24-1.16.4.29,1.62,1.71,2,2.73,2.71A2.94,2.94,0,0,1,913,490l-2.86,1.09c.87,1.47,2,2.6,2,4.31a4.14,4.14,0,0,0,1.4,2.31,3.56,3.56,0,0,1,.42,5.06c.55.7,1,1.33,1.51,1.91a2.61,2.61,0,0,1,.64,2.58c-1.17,3.33.59,5.61,2.7,7.71A23.13,23.13,0,0,0,922,517.3c2,1.38,2.11,2.35.58,4.11Z"/><path d="M357.59,606.09c-1.22-.38-2.43-.74-3.64-1.15a173.06,173.06,0,0,0-31.18-7.3A153,153,0,0,0,299.84,596c-16.37.24-32.35,2.73-47.7,8.63a4.83,4.83,0,0,1-2.45.36,14.82,14.82,0,0,1,1.52-1.25,110.79,110.79,0,0,1,41.51-15.86c22.86-3.63,43.52,1.51,62.08,15.27,1,.78,2,1.64,3,2.46Z"/><path d="M860.11,711.86l-6.86-.39a33.15,33.15,0,0,1-.17-8.09c1.1-.15,2-.33,2.87-.39,4.27-.27,22.41,0,25.09.33.66,2.51.31,5.1.2,7.74-2.13,1.25-4.48.17-6.68.85-1,.88-.66,2.14-.67,3.28,0,8.44,0,16.89,0,25.34,0,1.43-.08,2.86-.12,4.41a46.64,46.64,0,0,1-12.92.3c-.08-1.48-.2-2.77-.2-4.06,0-8.44,0-16.89,0-25.34C860.61,714.55,860.86,713.21,860.11,711.86Z"/><path d="M839.3,736.89l7.67.42a34.34,34.34,0,0,1,.17,7.48c-3.75,1.17-15.89,1.49-20.62.55a18.67,18.67,0,0,1-.31-2.21c-.42-11.72-.17-36.28.42-39.74,4-.45,8-.16,12.34-.21.12,1.18.31,2.18.31,3.18,0,8.72,0,17.43,0,26.15Z"/><path d="M271.64,541.3c1.77-1.31,2.86-2.13,4.14-3.09-.41-1-.86-1.85-1.17-2.79s-.48-2-.74-3a2.56,2.56,0,0,1,.74-2.89c2-1.48,3-3.59,4.21-5.64,1.29-2.21,3.16-2.38,4.71-.4,1.39,1.78,2.49,3.63,2.11,6.13a8.35,8.35,0,0,0,1.3,6c1.27,1.94.08,4.28-2.22,4.84a23.45,23.45,0,0,1-3.12.45c-2.61.29-5.23.55-7.85.8A13.59,13.59,0,0,1,271.64,541.3Z"/><path d="M299.2,534.37c0,1.08,0,1.34,0,1.61-.06,2-.5,2.62-2.49,2.86a22.54,22.54,0,0,1-3.94.1,1.55,1.55,0,0,1-1.36-2,3.86,3.86,0,0,1,.33-1.14c1.43-2.41,1.48-5,1.25-7.69a12.17,12.17,0,0,1,.13-2.76,2.12,2.12,0,0,1,2.26-1.79c1.15,0,1.8.65,2.07,1.94.32,1.54.74,3.06,1,4.6S299.05,533.47,299.2,534.37Z"/><path d="M342.56,536.35c-.1-1.68-.23-3.12-.26-4.56a5.82,5.82,0,0,1,.27-1.95c.75-2.12,1.57-4.2,2.37-6.3a1.77,1.77,0,0,1,1.75-1.33A1.89,1.89,0,0,1,348.5,524a8.36,8.36,0,0,1,.13,1.58,13.42,13.42,0,0,0,1.55,6.88,5.54,5.54,0,0,1,.48,1.9,1.75,1.75,0,0,1-1.49,2C347.1,536.73,345,537.17,342.56,536.35Z"/><path d="M936.93,736.31a39,39,0,0,1,0,8.44c-2.87.84-5.74.32-8.74.32-1.09-2.72-.42-5.43-.48-8.36C930.72,736,933.59,736.48,936.93,736.31Z"/><path d="M309.8,537.68c-1.9,1-4,.91-6.08.75a2.07,2.07,0,0,1-1.45-1.11,6.46,6.46,0,0,1-.63-3.05,13.7,13.7,0,0,1,2.5-7,1.4,1.4,0,0,1,2.53.23,7.17,7.17,0,0,1,1.12,2.9,13.7,13.7,0,0,0,2,6.34A2.46,2.46,0,0,1,309.8,537.68Z"/><path d="M360,536a5.83,5.83,0,0,1,1.09-4c.75-1.2,2.28-1.27,2.83-.06s1.65,2.33.9,3.62-2.29.89-3.56.84A4.89,4.89,0,0,1,360,536Z"/><path d="M318.4,535.69c.12-1.15.8-1.85,1.66-1.71a2.07,2.07,0,0,1,1.42,2.42,1.67,1.67,0,0,1-2,1.42C318.69,537.7,318.28,536.93,318.4,535.69Z"/><path d="M860.26,601.08l.66-.12-.63.17Z"/></svg>